<svg id="Layer_1" data-name="Layer 1" xmlns="http://www.w3.org/2000/svg" viewBox="0 0 921.25 1020.79"><defs><style>.cls-1{fill:#0f0f0f;}.cls-1,.cls-2,.cls-3,.cls-4{stroke:#000;stroke-miterlimit:10;stroke-width:0.25px;}.cls-2{fill:#fff;}.cls-3{fill:#1a1a1a;}.cls-4{fill:#080808;}</style></defs><path class="cls-1" d="M971,304.28,968.29,751.9a4,4,0,0,1-6,3.44l-518-299.6a4,4,0,0,1-2-3.47l.78-445.06a4,4,0,0,1,6-3.46L969,300.78A4,4,0,0,1,971,304.28Z" transform="translate(-49.87 -3.09)"/><polygon class="cls-2" points="903.2 313.1 410.38 28.24 410.05 404.58 903.2 681.22 903.2 313.1"/><path class="cls-1" d="M968.25,761.09v34a4,4,0,0,1-2,3.46l-389,224.62a4,4,0,0,1-4,0L52,722.24a4,4,0,0,1-2-3.69l.21-33.37a5.67,5.67,0,0,1,2.5-3.76L440.27,455.77a4,4,0,0,1,4,0l522,301.88A4,4,0,0,1,968.25,761.09Z" transform="translate(-49.87 -3.09)"/><path class="cls-3" d="M966,764.74,576,982.27a4,4,0,0,1-4,0L53,687.73a4,4,0,0,1,0-6.91L440.27,455.77a4,4,0,0,1,4,0L966,757.81A4,4,0,0,1,966,764.74Z" transform="translate(-49.87 -3.09)"/><path class="cls-4" d="M915.35,760.39l-42.79-24.71a3.86,3.86,0,0,0-3.95.05l-40.44,24.61a3.87,3.87,0,0,0,.07,6.66L870,791.1a3.88,3.88,0,0,0,3.87,0l41.49-24A3.87,3.87,0,0,0,915.35,760.39Z" transform="translate(-49.87 -3.09)"/><path class="cls-4" d="M853.37,724.05l-42.79-24.71a3.86,3.86,0,0,0-4,0L766.18,724a3.87,3.87,0,0,0,.08,6.66L808,754.76a3.88,3.88,0,0,0,3.87,0l41.49-24A3.87,3.87,0,0,0,853.37,724.05Z" transform="translate(-49.87 -3.09)"/><path class="cls-4" d="M790.44,688.37l-43-24.81a3.77,3.77,0,0,0-3.85,0L703,688.33a3.77,3.77,0,0,0,.07,6.5L745,719a3.78,3.78,0,0,0,3.79,0l41.67-24.12A3.77,3.77,0,0,0,790.44,688.37Z" transform="translate(-49.87 -3.09)"/><path class="cls-4" d="M728.46,652l-43-24.81a3.77,3.77,0,0,0-3.85,0L641,652a3.79,3.79,0,0,0,.08,6.51L683,682.69a3.78,3.78,0,0,0,3.79,0l41.67-24.12A3.77,3.77,0,0,0,728.46,652Z" transform="translate(-49.87 -3.09)"/><path class="cls-4" d="M663.59,615.31l-43-24.81a3.81,3.81,0,0,0-3.86,0l-40.62,24.73a3.78,3.78,0,0,0,.07,6.5L618.14,646a3.76,3.76,0,0,0,3.78,0l41.68-24.11A3.79,3.79,0,0,0,663.59,615.31Z" transform="translate(-49.87 -3.09)"/><path class="cls-4" d="M601.61,579l-43-24.81a3.81,3.81,0,0,0-3.86,0l-40.62,24.73a3.78,3.78,0,0,0,.07,6.5l41.93,24.2a3.76,3.76,0,0,0,3.78,0l41.67-24.11A3.78,3.78,0,0,0,601.61,579Z" transform="translate(-49.87 -3.09)"/><path class="cls-4" d="M538.54,543.21l-43-24.81a3.77,3.77,0,0,0-3.85.05l-40.63,24.72a3.78,3.78,0,0,0,.08,6.5l41.92,24.21a3.78,3.78,0,0,0,3.78,0l41.68-24.11A3.79,3.79,0,0,0,538.54,543.21Z" transform="translate(-49.87 -3.09)"/><path class="cls-4" d="M476.56,506.87l-43-24.81a3.79,3.79,0,0,0-3.86.05l-40.62,24.72a3.78,3.78,0,0,0,.07,6.5l41.93,24.21a3.78,3.78,0,0,0,3.78,0l41.68-24.11A3.79,3.79,0,0,0,476.56,506.87Z" transform="translate(-49.87 -3.09)"/><path class="cls-4" d="M854.62,794.41,811.83,769.7a3.88,3.88,0,0,0-4,0l-40.45,24.61a3.87,3.87,0,0,0,.08,6.66l41.74,24.1a3.85,3.85,0,0,0,3.88,0l41.49-24A3.87,3.87,0,0,0,854.62,794.41Z" transform="translate(-49.87 -3.09)"/><path class="cls-4" d="M792.77,758.15l-43-24.81a3.79,3.79,0,0,0-3.86,0L705.32,758.1a3.78,3.78,0,0,0,.07,6.5l41.93,24.21a3.76,3.76,0,0,0,3.78,0l41.68-24.12A3.78,3.78,0,0,0,792.77,758.15Z" transform="translate(-49.87 -3.09)"/><path class="cls-4" d="M729.71,722.39l-43-24.81a3.79,3.79,0,0,0-3.85,0l-40.63,24.73a3.78,3.78,0,0,0,.08,6.5l41.92,24.2a3.76,3.76,0,0,0,3.78,0l41.68-24.11A3.79,3.79,0,0,0,729.71,722.39Z" transform="translate(-49.87 -3.09)"/><path class="cls-4" d="M667.72,686.05l-43-24.81a3.81,3.81,0,0,0-3.86,0L580.27,686a3.78,3.78,0,0,0,.08,6.5l41.92,24.2a3.76,3.76,0,0,0,3.78,0l41.68-24.11A3.79,3.79,0,0,0,667.72,686.05Z" transform="translate(-49.87 -3.09)"/><path class="cls-4" d="M602.86,649.33l-43-24.81a3.79,3.79,0,0,0-3.86.05l-40.62,24.72a3.77,3.77,0,0,0,.07,6.5L557.41,680a3.76,3.76,0,0,0,3.78,0l41.67-24.11A3.78,3.78,0,0,0,602.86,649.33Z" transform="translate(-49.87 -3.09)"/><path class="cls-4" d="M540.88,613l-43-24.81a3.77,3.77,0,0,0-3.85.05L453.42,613a3.78,3.78,0,0,0,.08,6.5l41.92,24.2a3.78,3.78,0,0,0,3.79,0l41.67-24.11A3.78,3.78,0,0,0,540.88,613Z" transform="translate(-49.87 -3.09)"/><path class="cls-4" d="M477.81,577.24l-43-24.82a3.79,3.79,0,0,0-3.86.05l-40.62,24.72a3.78,3.78,0,0,0,.07,6.5l41.93,24.21a3.81,3.81,0,0,0,3.78,0l41.67-24.12A3.77,3.77,0,0,0,477.81,577.24Z" transform="translate(-49.87 -3.09)"/><path class="cls-4" d="M415.83,540.9l-43-24.82a3.77,3.77,0,0,0-3.85,0l-40.62,24.72a3.77,3.77,0,0,0,.07,6.5l41.93,24.21a3.81,3.81,0,0,0,3.78,0l41.67-24.12A3.77,3.77,0,0,0,415.83,540.9Z" transform="translate(-49.87 -3.09)"/><path class="cls-4" d="M793.17,828.27l-42.79-24.71a3.88,3.88,0,0,0-4,.05L706,828.22a3.87,3.87,0,0,0,.08,6.66L747.8,859a3.85,3.85,0,0,0,3.88,0l41.49-24A3.87,3.87,0,0,0,793.17,828.27Z" transform="translate(-49.87 -3.09)"/><path class="cls-4" d="M731.32,792l-43-24.81a3.79,3.79,0,0,0-3.86,0L643.87,792a3.79,3.79,0,0,0,.07,6.51l41.93,24.2a3.76,3.76,0,0,0,3.78,0l41.67-24.12A3.77,3.77,0,0,0,731.32,792Z" transform="translate(-49.87 -3.09)"/><path class="cls-4" d="M668.25,756.25l-43-24.81a3.79,3.79,0,0,0-3.86,0L580.8,756.21a3.78,3.78,0,0,0,.08,6.5l41.92,24.2a3.76,3.76,0,0,0,3.78,0l41.68-24.11A3.79,3.79,0,0,0,668.25,756.25Z" transform="translate(-49.87 -3.09)"/><path class="cls-4" d="M606.27,719.91l-43-24.81a3.81,3.81,0,0,0-3.86,0l-40.62,24.73a3.78,3.78,0,0,0,.07,6.5l41.93,24.2a3.76,3.76,0,0,0,3.78,0l41.68-24.11A3.79,3.79,0,0,0,606.27,719.91Z" transform="translate(-49.87 -3.09)"/><path class="cls-4" d="M541.41,683.19l-43-24.81a3.77,3.77,0,0,0-3.85,0L454,683.15a3.77,3.77,0,0,0,.07,6.5L496,713.86a3.8,3.8,0,0,0,3.79,0l41.67-24.11A3.78,3.78,0,0,0,541.41,683.19Z" transform="translate(-49.87 -3.09)"/><path class="cls-4" d="M479.43,646.85l-43-24.81a3.77,3.77,0,0,0-3.85.05L392,646.81a3.78,3.78,0,0,0,.08,6.5L434,677.52a3.8,3.8,0,0,0,3.79,0l41.67-24.11A3.78,3.78,0,0,0,479.43,646.85Z" transform="translate(-49.87 -3.09)"/><path class="cls-4" d="M416.36,611.1l-43-24.81a3.76,3.76,0,0,0-3.86,0l-40.62,24.72a3.78,3.78,0,0,0,.07,6.5l41.93,24.21a3.81,3.81,0,0,0,3.78,0l41.67-24.12A3.77,3.77,0,0,0,416.36,611.1Z" transform="translate(-49.87 -3.09)"/><path class="cls-4" d="M354.38,574.76l-43-24.82a3.77,3.77,0,0,0-3.85,0l-40.63,24.72a3.78,3.78,0,0,0,.08,6.5l41.92,24.21a3.82,3.82,0,0,0,3.79,0l41.67-24.12A3.77,3.77,0,0,0,354.38,574.76Z" transform="translate(-49.87 -3.09)"/><path class="cls-4" d="M589.33,785.72l-185.13-107a1.57,1.57,0,0,0-1.57,0l-170,97.87a1.57,1.57,0,0,0,0,2.73l188,105.72a1.58,1.58,0,0,0,1.56,0l167.06-96.6A1.58,1.58,0,0,0,589.33,785.72Z" transform="translate(-49.87 -3.09)"/></svg>