<svg id="Layer_3" data-name="Layer 3" xmlns="http://www.w3.org/2000/svg" xmlns:xlink="http://www.w3.org/1999/xlink" viewBox="0 0 315 308.16"><defs><style>.cls-1,.cls-2{stroke:#000;stroke-miterlimit:10;}.cls-1{stroke-width:4px;}.cls-2{fill:none;stroke-width:12px;}.cls-3{mask:url(#mask);}.cls-4{filter:url(#luminosity-noclip);}</style><filter id="luminosity-noclip" x="584.29" y="263.83" width="212.38" height="260.09" filterUnits="userSpaceOnUse" color-interpolation-filters="sRGB"><feFlood flood-color="#fff" result="bg"/><feBlend in="SourceGraphic" in2="bg"/></filter><mask id="mask" x="101.29" y="40.89" width="212.38" height="260.09" maskUnits="userSpaceOnUse"><g class="cls-4"><g transform="translate(-483 -222.94)"><polyline class="cls-1" points="585.92 264.99 687.92 407.99 791.92 378.79"/></g></g></mask></defs><line class="cls-2" x1="103" y1="62.93" x2="3" y2="5.2"/><line class="cls-2" x1="103" y1="172.93" x2="3" y2="115.2"/><line class="cls-2" x1="103" y1="116.93" x2="13" y2="64.97"/><path class="cls-2" d="M784.58,524.43,588.47,411.21a4.94,4.94,0,0,1-2.47-4.28V265.36a5,5,0,0,1,7.42-4.29L789.53,374.29a4.94,4.94,0,0,1,2.47,4.28V520.14A5,5,0,0,1,784.58,524.43Z" transform="translate(-483 -222.94)"/><g class="cls-3"><polyline class="cls-2" points="309 297.21 206 169.81 103 183.99"/></g><polyline class="cls-2" points="103 42.06 205 185.06 309 155.86"/></svg>