<svg id="Layer_1" data-name="Layer 1" xmlns="http://www.w3.org/2000/svg" viewBox="0 0 945.03 1024.7"><defs><style>.cls-1,.cls-5{fill:#1a1a1a;}.cls-1{stroke:#1a1a1a;stroke-width:8px;}.cls-1,.cls-3,.cls-4,.cls-5,.cls-6{stroke-miterlimit:10;}.cls-2,.cls-4{fill:#fff;}.cls-3{fill:#0f0f0f;}.cls-3,.cls-4,.cls-5,.cls-6,.cls-7{stroke:#000;}.cls-3,.cls-4,.cls-5,.cls-6{stroke-width:0.25px;}.cls-6{fill:#080808;}.cls-10,.cls-7,.cls-8,.cls-9{stroke-linejoin:round;}.cls-7{stroke-width:5px;}.cls-8{stroke:red;stroke-width:2px;}.cls-10,.cls-8,.cls-9{stroke-linecap:round;}.cls-10,.cls-9{fill:none;stroke:#29abe2;stroke-width:4px;}.cls-10{stroke-dasharray:0 5;}.cls-11{fill:red;}</style></defs><path class="cls-1" d="M97.5,297.7V301a14.51,14.51,0,0,0,7.27,12.58l264.7,152.72a6.39,6.39,0,0,0,6.4,0L722.06,265.1a8.15,8.15,0,0,0,4-7.1l-.06-6.35a8.12,8.12,0,0,0-4.08-7L455.13,91.46a8.12,8.12,0,0,0-8.12,0L100.71,292.15A6.4,6.4,0,0,0,97.5,297.7Z" transform="translate(-43.1 10.91)"/><polygon class="cls-2" points="81.28 289.63 355.5 448.63 656.26 273.63 382.4 115.52 81.28 289.63"/><path class="cls-3" d="M988,290.28,985.29,737.9a4,4,0,0,1-6,3.44l-518-299.6a4,4,0,0,1-2-3.47l.78-445.06a4,4,0,0,1,6-3.46L986,286.78A4,4,0,0,1,988,290.28Z" transform="translate(-43.1 10.91)"/><polygon class="cls-4" points="926.98 313.1 434.16 28.24 433.82 404.58 926.98 681.22 926.98 313.1"/><path class="cls-3" d="M985.25,747.09v34a4,4,0,0,1-2,3.46l-389,224.62a4,4,0,0,1-4,0L69,708.24a4,4,0,0,1-2-3.69l.21-33.37a5.67,5.67,0,0,1,2.5-3.76L457.27,441.77a4,4,0,0,1,4,0l522,301.88A4,4,0,0,1,985.25,747.09Z" transform="translate(-43.1 10.91)"/><path class="cls-5" d="M983,750.74,593,968.27a4,4,0,0,1-4,0L70,673.73a4,4,0,0,1,0-6.91L457.27,441.77a4,4,0,0,1,4,0L983,743.81A4,4,0,0,1,983,750.74Z" transform="translate(-43.1 10.91)"/><path class="cls-6" d="M932.35,746.39l-42.79-24.71a3.86,3.86,0,0,0-3.95.05l-40.44,24.61a3.87,3.87,0,0,0,.07,6.66L887,777.1a3.88,3.88,0,0,0,3.87,0l41.49-24A3.87,3.87,0,0,0,932.35,746.39Z" transform="translate(-43.1 10.91)"/><path class="cls-6" d="M870.37,710.05l-42.79-24.71a3.86,3.86,0,0,0-4,0L783.18,710a3.87,3.87,0,0,0,.08,6.66L825,740.76a3.88,3.88,0,0,0,3.87,0l41.49-24A3.87,3.87,0,0,0,870.37,710.05Z" transform="translate(-43.1 10.91)"/><path class="cls-6" d="M807.44,674.37l-43-24.81a3.77,3.77,0,0,0-3.85,0L720,674.33a3.77,3.77,0,0,0,.07,6.5L762,705a3.78,3.78,0,0,0,3.79,0l41.67-24.12A3.77,3.77,0,0,0,807.44,674.37Z" transform="translate(-43.1 10.91)"/><path class="cls-6" d="M745.46,638l-43-24.81a3.77,3.77,0,0,0-3.85,0L658,638a3.79,3.79,0,0,0,.08,6.51L700,668.69a3.78,3.78,0,0,0,3.79,0l41.67-24.12A3.77,3.77,0,0,0,745.46,638Z" transform="translate(-43.1 10.91)"/><path class="cls-6" d="M680.59,601.31l-43-24.81a3.81,3.81,0,0,0-3.86,0l-40.62,24.73a3.78,3.78,0,0,0,.07,6.5L635.14,632a3.76,3.76,0,0,0,3.78,0l41.68-24.11A3.79,3.79,0,0,0,680.59,601.31Z" transform="translate(-43.1 10.91)"/><path class="cls-6" d="M618.61,565l-43-24.81a3.81,3.81,0,0,0-3.86,0l-40.62,24.73a3.78,3.78,0,0,0,.07,6.5l41.93,24.2a3.76,3.76,0,0,0,3.78,0l41.67-24.11A3.78,3.78,0,0,0,618.61,565Z" transform="translate(-43.1 10.91)"/><path class="cls-6" d="M555.54,529.21l-43-24.81a3.77,3.77,0,0,0-3.85.05l-40.63,24.72a3.78,3.78,0,0,0,.08,6.5l41.92,24.21a3.78,3.78,0,0,0,3.78,0l41.68-24.11A3.79,3.79,0,0,0,555.54,529.21Z" transform="translate(-43.1 10.91)"/><path class="cls-6" d="M493.56,492.87l-43-24.81a3.79,3.79,0,0,0-3.86.05l-40.62,24.72a3.78,3.78,0,0,0,.07,6.5l41.93,24.21a3.78,3.78,0,0,0,3.78,0l41.68-24.11A3.79,3.79,0,0,0,493.56,492.87Z" transform="translate(-43.1 10.91)"/><path class="cls-6" d="M871.62,780.41,828.83,755.7a3.88,3.88,0,0,0-4,0l-40.45,24.61a3.87,3.87,0,0,0,.08,6.66l41.74,24.1a3.85,3.85,0,0,0,3.88,0l41.49-24A3.87,3.87,0,0,0,871.62,780.41Z" transform="translate(-43.1 10.91)"/><path class="cls-6" d="M809.77,744.15l-43-24.81a3.79,3.79,0,0,0-3.86,0L722.32,744.1a3.78,3.78,0,0,0,.07,6.5l41.93,24.21a3.76,3.76,0,0,0,3.78,0l41.68-24.12A3.78,3.78,0,0,0,809.77,744.15Z" transform="translate(-43.1 10.91)"/><path class="cls-6" d="M746.71,708.39l-43-24.81a3.79,3.79,0,0,0-3.85,0l-40.63,24.73a3.78,3.78,0,0,0,.08,6.5l41.92,24.2a3.76,3.76,0,0,0,3.78,0l41.68-24.11A3.79,3.79,0,0,0,746.71,708.39Z" transform="translate(-43.1 10.91)"/><path class="cls-6" d="M684.72,672.05l-43-24.81a3.81,3.81,0,0,0-3.86,0L597.27,672a3.78,3.78,0,0,0,.08,6.5l41.92,24.2a3.76,3.76,0,0,0,3.78,0l41.68-24.11A3.79,3.79,0,0,0,684.72,672.05Z" transform="translate(-43.1 10.91)"/><path class="cls-6" d="M619.86,635.33l-43-24.81a3.79,3.79,0,0,0-3.86.05l-40.62,24.72a3.77,3.77,0,0,0,.07,6.5L574.41,666a3.76,3.76,0,0,0,3.78,0l41.67-24.11A3.78,3.78,0,0,0,619.86,635.33Z" transform="translate(-43.1 10.91)"/><path class="cls-6" d="M557.88,599l-43-24.81a3.77,3.77,0,0,0-3.85.05L470.42,599a3.78,3.78,0,0,0,.08,6.5l41.92,24.2a3.78,3.78,0,0,0,3.79,0l41.67-24.11A3.78,3.78,0,0,0,557.88,599Z" transform="translate(-43.1 10.91)"/><path class="cls-6" d="M494.81,563.24l-43-24.82a3.79,3.79,0,0,0-3.86.05l-40.62,24.72a3.78,3.78,0,0,0,.07,6.5l41.93,24.21a3.81,3.81,0,0,0,3.78,0l41.67-24.12A3.77,3.77,0,0,0,494.81,563.24Z" transform="translate(-43.1 10.91)"/><path class="cls-6" d="M432.83,526.9l-43-24.82a3.77,3.77,0,0,0-3.85.05l-40.62,24.72a3.77,3.77,0,0,0,.07,6.5l41.93,24.21a3.81,3.81,0,0,0,3.78,0l41.67-24.12A3.77,3.77,0,0,0,432.83,526.9Z" transform="translate(-43.1 10.91)"/><path class="cls-6" d="M810.17,814.27l-42.79-24.71a3.88,3.88,0,0,0-4,.05L723,814.22a3.87,3.87,0,0,0,.08,6.66L764.8,845a3.85,3.85,0,0,0,3.88,0l41.49-24A3.87,3.87,0,0,0,810.17,814.27Z" transform="translate(-43.1 10.91)"/><path class="cls-6" d="M748.32,778l-43-24.81a3.79,3.79,0,0,0-3.86,0L660.87,778a3.79,3.79,0,0,0,.07,6.51l41.93,24.2a3.76,3.76,0,0,0,3.78,0l41.67-24.12A3.77,3.77,0,0,0,748.32,778Z" transform="translate(-43.1 10.91)"/><path class="cls-6" d="M685.25,742.25l-43-24.81a3.79,3.79,0,0,0-3.86,0L597.8,742.21a3.78,3.78,0,0,0,.08,6.5l41.92,24.2a3.76,3.76,0,0,0,3.78,0l41.68-24.11A3.79,3.79,0,0,0,685.25,742.25Z" transform="translate(-43.1 10.91)"/><path class="cls-6" d="M623.27,705.91l-43-24.81a3.81,3.81,0,0,0-3.86,0l-40.62,24.73a3.78,3.78,0,0,0,.07,6.5l41.93,24.2a3.76,3.76,0,0,0,3.78,0l41.68-24.11A3.79,3.79,0,0,0,623.27,705.91Z" transform="translate(-43.1 10.91)"/><path class="cls-6" d="M558.41,669.19l-43-24.81a3.77,3.77,0,0,0-3.85,0L471,669.15a3.77,3.77,0,0,0,.07,6.5L513,699.86a3.8,3.8,0,0,0,3.79,0l41.67-24.11A3.78,3.78,0,0,0,558.41,669.19Z" transform="translate(-43.1 10.91)"/><path class="cls-6" d="M496.43,632.85l-43-24.81a3.77,3.77,0,0,0-3.85.05L409,632.81a3.78,3.78,0,0,0,.08,6.5L451,663.52a3.8,3.8,0,0,0,3.79,0l41.67-24.11A3.78,3.78,0,0,0,496.43,632.85Z" transform="translate(-43.1 10.91)"/><path class="cls-6" d="M433.36,597.1l-43-24.81a3.76,3.76,0,0,0-3.86,0l-40.62,24.72a3.78,3.78,0,0,0,.07,6.5l41.93,24.21a3.81,3.81,0,0,0,3.78,0l41.67-24.12A3.77,3.77,0,0,0,433.36,597.1Z" transform="translate(-43.1 10.91)"/><path class="cls-6" d="M371.38,560.76l-43-24.82a3.77,3.77,0,0,0-3.85,0l-40.63,24.72a3.78,3.78,0,0,0,.08,6.5l41.92,24.21a3.82,3.82,0,0,0,3.79,0l41.67-24.12A3.77,3.77,0,0,0,371.38,560.76Z" transform="translate(-43.1 10.91)"/><path class="cls-6" d="M606.33,771.72l-185.13-107a1.57,1.57,0,0,0-1.57,0l-170,97.87a1.57,1.57,0,0,0,0,2.73l188,105.72a1.58,1.58,0,0,0,1.56,0l167.06-96.6A1.58,1.58,0,0,0,606.33,771.72Z" transform="translate(-43.1 10.91)"/><path class="cls-7" d="M45.6,857V865a6.26,6.26,0,0,0,3.12,5.41l242.63,140.08a6.28,6.28,0,0,0,6.25,0l125.1-72.23a6.24,6.24,0,0,0,3.12-5.41v-7.9a6.25,6.25,0,0,0-3.13-5.42L179.38,779.42a6.26,6.26,0,0,0-6.25,0L48.71,851.63A6.25,6.25,0,0,0,45.6,857Z" transform="translate(-43.1 10.91)"/><path class="cls-2" d="M179.38,779.42,416.43,915.89a6.25,6.25,0,0,1,0,10.82L297.6,995.32a6.23,6.23,0,0,1-6.25,0L54.94,858.83a6.25,6.25,0,0,1,0-10.81l118.2-68.59A6.26,6.26,0,0,1,179.38,779.42Z" transform="translate(-43.1 10.91)"/><line class="cls-8" x1="354.8" y1="690.62" x2="433.9" y2="735.78"/><line class="cls-8" x1="459.09" y1="750.4" x2="538.18" y2="796.28"/><line class="cls-9" x1="433.4" y1="735.41" x2="433.4" y2="735.41"/><line class="cls-10" x1="437.73" y1="737.91" x2="457.23" y2="749.16"/><line class="cls-9" x1="459.4" y1="750.41" x2="459.4" y2="750.41"/><ellipse class="cls-11" cx="533.4" cy="684.91" rx="17.5" ry="7"/></svg>